/* XPM */
static char *parrot_frame_1[] = {
/* columns rows colors chars-per-pixel */
"28 20 64 1 ",
"  c #213908",
". c #243D08",
"X c #274108",
"o c #2A4508",
"O c #2D4A08",
"+ c #304E08",
"@ c #335208",
"# c #365608",
"$ c #395A08",
"% c #2C4314",
"& c #355014",
"* c #3B5814",
"= c #384E21",
"- c #3A4F24",
"; c #2E5227",
": c #3B5221",
"> c #375E27",
", c #416014",
"< c #43582D",
"1 c #455930",
"2 c #436F27",
"3 c #4E633A",
"4 c #5A733A",
"5 c #3C6B46",
"6 c #3F6F46",
"7 c #536540",
"8 c #596D46",
"9 c #5A6B48",
"0 c #457746",
"q c #4B7F46",
"w c #627946",
"e c #697B57",
"r c #6B7A5C",
"t c #707F61",
"y c #4E8346",
"u c #589865",
"i c #728362",
"p c #748465",
"a c #7B8C6B",
"s c #849078",
"d c #89977B",
"f c #579C84",
"g c #5AA084",
"h c #63AD84",
"j c #64B5A2",
"k c #6DC1A2",
"l c #71CEC1",
"z c #74D2C1",
"x c #77D6C1",
"c c #7FE6E0",
"v c #929C87",
"b c #9AA68E",
"n c #9DA693",
"m c #A4AE9A",
"M c #A6AF9D",
"N c #A6B293",
"B c #B1BAA9",
"V c #BFC5B9",
"C c #82EAE0",
"Z c #8CFFFF",
"A c #CED1CB",
"S c #DADCD8",
"D c #E7E7E7",
"F c None",
/* pixels */
"FFFFFFFFFFFFFFFFFFFFFFFFFFFF",
"FFFFFFDVVNDFFFFFFFFFFFFFFFFF",
"FFFFDD<<:oorDFFFFFFFFFFFFFFF",
"FFFDd Ozcc5 1BFFFFFFFFFFFFFF",
"FFDa 5ZZcccC@=VFFFFFFFFFFFFF",
"FFm q 0k oo@  7FFFFFFFFFFFFF",
"FF<fC+yo*aw.   AFFFFFFFFFFFF",
"Fv cZCZ;,aa,#C6 DFFFFFFFFFFF",
"Fn+CZZZ2,aa%2Zh.DFFFFFFFFFFF",
"Dp+ZZZZ>,aa%2ZZ;iDFFFFFFFFFF",
"S8+ZZZZx&aa%xZZl-DFFFFFFFFFF",
"S8gZZZZZ.43 ZZZy-DFFFFFFFFFF",
"Dn+CZZZZ    ZZZ2-DFFFFFFFFFF",
"FnXCZZZZC  ZZZZh tFFFFFFFFFF",
"Fn cZZZZZkZZZZZZf oeFFFFFFFF",
"FF=#ZZZZZZZZZZZZZc5  bFFFFFF",
"FF<#$$$xZZZZZZZZZZZy =MFFFFF",
"FF<cuu$$2ZZZZZZZZZZZZ  sFFFF",
"FF<cZZZkxZZZZZZZZZZZZZj 9FFF",
"FF< ;;;;;;;;;;;;;;;;;;; %aFF"
};
