/* XPM */
static char *parrot_frame_6[] = {
/* columns rows colors chars-per-pixel */
"28 20 53 1 ",
"  c #213908",
". c #243D08",
"X c #3D3F1E",
"o c #274108",
"O c #2A4508",
"+ c #2D4A08",
"@ c #325A04",
"# c #335208",
"$ c #395A08",
"% c #2C4314",
"& c #3A4F24",
"* c #464C1E",
"= c #476A1E",
"- c #43582D",
"; c #594633",
": c #625233",
"> c #6B5E33",
", c #4E633A",
"< c #744C49",
"1 c #536540",
"2 c #546841",
"3 c #596D46",
"4 c #5E6F4C",
"5 c #657752",
"6 c #687B52",
"7 c #697B57",
"8 c #707F61",
"9 c #90525F",
"0 c #93565F",
"q c #995E5F",
"w c #836049",
"e c #9C635F",
"r c #AC5874",
"t c #AF5C74",
"y c #B56574",
"u c #70825F",
"i c #73865F",
"p c #748A5E",
"a c #7B8C6B",
"s c #849078",
"d c #C85F8A",
"f c #CE678A",
"g c #E6699F",
"h c #FF6BB5",
"j c #A6B09D",
"k c #B6BCAF",
"l c #BFC5B9",
"z c #BFC4BA",
"x c #CBCEC7",
"c c #CED1CB",
"v c #D8DAD5",
"b c #E7E7E7",
"n c None",
/* pixels */
"nnnnnnnnnnnnnnnnnnnnnnnnnnnn",
"nnnnnnnnnnnnnnnnnnnnnnnnnnnn",
"nnnnnnnnnnnnnnnnnnnnnnnnnnnn",
"nnnnnnnnnnnnnnnnnbbbnnnnnnnn",
"nnnnnnnnnnnnnnbc6+ 5alnnnnnn",
"nnnnnnnnnnnnnl oO<<<  nnnnnn",
"nnnnnnnnnnnn4 :o*hfw@o3nnnnn",
"nnnnnnnnnnn1 >hXXd..$  xnnnn",
"nnnnnnnnnn7 >hh;;r3aa3 knnnn",
"nnnnnnnnnn-ohhhhhr=aa3  bnnn",
"nnnnnnnnn8 qhhhhhr=aa3:.snnn",
"nnnnnnnnb 9hhhhhhr3aa3rX&bnn",
"nnnnnnnv Oyhhhhhhd+ip@th%ann",
"nnnnnnn2 #yhhhhhhh<,,Oye%ann",
"nnnnnnk 0$$hhhhhhh<  $he%jnn",
"nnnnnk #he$$hhhhhhh .whh&bnn",
"nnnbk dhhhw$ggghhhhhhhh.1nnn",
"nnb3 dhhhhfw$$$efhhhhhw bnnn",
"bb  dhhhhhhhyyyyfhhhhh< bnnn",
"b3  XXXXXXXXXXXXXXXXXX 5nnnn"
};
