/* XPM */
static char *parrot_frame_10[] = {
/* columns rows colors chars-per-pixel */
"28 20 58 1 ",
"  c #213908",
". c #243D08",
"X c #274108",
"o c #2A4508",
"O c #2D4A08",
"+ c #304E08",
"@ c #335208",
"# c #395A08",
"$ c #2C4314",
"% c #2E5219",
"& c #315619",
"* c #375E19",
"= c #3F6F03",
"- c #384E21",
"; c #3A4F24",
": c #3C6B29",
"> c #3F6F29",
", c #416014",
"< c #436F19",
"1 c #43582D",
"2 c #455A30",
"3 c #4F6C24",
"4 c #4E633A",
"5 c #576F3A",
"6 c #596D46",
"7 c #657D40",
"8 c #627946",
"9 c #6B7A5C",
"0 c #4E8329",
"q c #49833A",
"w c #52903A",
"e c #58983A",
"r c #579C4A",
"t c #73865F",
"y c #63AD4A",
"u c #64B55B",
"i c #67B95B",
"p c #7B8C6B",
"a c #7D9065",
"s c #6DC15B",
"d c #71CE6B",
"f c #77D66B",
"g c #89977B",
"h c #8B987E",
"j c #82EA7C",
"k c #8F9A84",
"l c #9AA68E",
"z c #A0AA93",
"x c #A4AE9A",
"c c #B6BCAF",
"v c #8CFF8C",
"b c #C1C6BC",
"n c #CCD0C8",
"m c #CED1CB",
"M c #D1D5CB",
"N c #D1D5CE",
"B c #E7E7E7",
"V c None",
/* pixels */
"VVVVVVVVVVVVVVVVVVVVVVVVVVVV",
"VVVVVVVnk-oe: aVVVVVVVVVVVVV",
"VVVVVVc1 svvvu 7VVVVVVVVVVVV",
"VVVVVc @<vy&<yq pVVVVVVVVVVV",
"VVVVb d<%sX#,   $NVVVVVVVVVV",
"VVVV4qvr*u+tp8o> 2VVVVVVVVVV",
"VVVB evvfs#tp8#jOoBVVVVVVVVV",
"VVVp.evvvi@tp8#jf@zVVVVVVVVV",
"VVB3%vvvvs#tp6+vvi@NVVVVVVVV",
"VVB;*vvvvvo5p-uvvsonVVVVVVVV",
"VVB;*vvvvvqX- uvvvohVVVVVVVV",
"VVB;%vvvvve  :vvvfobVVVVVVVV",
"VVVp.vvvvvv0&yvvvsobVVVVVVVV",
"VVVl #vvvvvvvvvvvv@4nVVVVVVV",
"VVVl =#eyvvvvvvvvvv@1cVVVVVV",
"VVVg.00##yvvvvvvvvvvd cVVVVV",
"VVB$&vv0<<fvvvvvvvvvvd cVVVV",
"VVx yvvvvvvvvvvvvvvvvvw cVVV",
"VV9Ovvvvvvvvvvvvvvvvvvvi cVV",
"VV9 %%%%%%%%%%%%%%%%%%%%  VV"
};
