/* XPM */
static char *parrot_frame_9[] = {
/* columns rows colors chars-per-pixel */
"28 20 58 1 ",
"  c #213908",
". c #243D08",
"X c #294A06",
"o c #274108",
"O c #2A4508",
"+ c #304E08",
"@ c #365608",
"# c #395A08",
"$ c #2C4314",
"% c #3D4D19",
"& c #384E21",
"* c #3A4F24",
"= c #405119",
"- c #416014",
"; c #4C6119",
": c #507F1B",
"> c #415A21",
", c #43582D",
"< c #596029",
"1 c #5C6429",
"2 c #626D29",
"3 c #687529",
"4 c #6B7929",
"5 c #74743A",
"6 c #77783A",
"7 c #596D46",
"8 c #5A6B48",
"9 c #5E6F4C",
"0 c #627946",
"q c #657752",
"w c #697B57",
"e c #6B7A5C",
"r c #7D803A",
"t c #668643",
"y c #6B8052",
"u c #6E805D",
"i c #70825F",
"p c #7B8C6B",
"a c #83893A",
"s c #938C4A",
"d c #99944A",
"f c #9C984A",
"g c #B5A85B",
"h c #89977B",
"j c #C8AF6B",
"k c #CBB36B",
"l c #CEB76B",
"z c #E3C27C",
"x c #E6C77C",
"c c #8F9A84",
"v c #9AA68E",
"b c #9DA693",
"n c #A6B09D",
"m c #BFC4BA",
"M c #FFD68C",
"N c #CBCEC7",
"B c #E7E7E7",
"V c None",
/* pixels */
"VVVVVVVVVVBh     wVVVVVVVVVV",
"VVVVVVVVVBb O5O1o VVVVVVVVVV",
"VVVVVVVVB7oslMMMg< mVVVVVVVV",
"VVVVVVVB-o#.M;%%=+ @VVVVVVVV",
"VVVVVVVu.fa.@Oyp@   BVVVVVVV",
"VVVVVVB*%Ml6z,ppi 5O$nVVVVVV",
"VVVVVVp$jMMMz,ppi5Ml  VVVVVV",
"VVVVVV8 MMMMz,p:i5MMjeVVVVVV",
"VVVVVV9@MMMMxXtpq6MM@,VVVVVV",
"VVVVVV,3MMMMx+>0.aMMd,VVVVVV",
"VVVVVV,3MMMMM2 O.MMMd,VVVVVV",
"VVVVVV,kMMMMMgo MMMM@9VVVVVV",
"VVVVVV& MMMMMMM4MMMMk9VVVVVV",
"VVVVVb @gMMMMMMMMMMM3 VVVVVV",
"VVVVw off#aaMMMMMMMMxo7VVVVV",
"VVVB ofMMxxxMMMMMMMMMs NVVVV",
"VVw =MMMMMMMMMMMMMMMMlOqVVVV",
"VB,ofMMMMMMMMMMMMMMMMMr BVVV",
"VpO@MMMMMMMMMMMMMMMMMMM.vVVV",
"Vc  %%%%%%%%%%%%%%%%%%% pVVV"
};
