/* XPM */
static char *parrot_frame_7[] = {
/* columns rows colors chars-per-pixel */
"28 20 61 1 ",
"  c #213908",
". c #243D08",
"X c #3D3F14",
"o c #274108",
"O c #2A4508",
"+ c #2D4A08",
"@ c #304E08",
"# c #335208",
"$ c #365608",
"% c #395A08",
"& c #2C4314",
"* c #384E21",
"= c #3A4F24",
"- c #4C5414",
"; c #525C14",
": c #594621",
"> c #43582D",
", c #455930",
"< c #744C2D",
"1 c #685A21",
"2 c #6B5E21",
"3 c #77502D",
"4 c #7D582D",
"5 c #476221",
"6 c #4E633A",
"7 c #686229",
"8 c #536540",
"9 c #546841",
"0 c #596D46",
"q c #5A6B48",
"w c #627940",
"e c #657D40",
"r c #657752",
"t c #687B52",
"y c #6B7A5C",
"u c #995E3A",
"i c #83602D",
"p c #9C633A",
"a c #B56546",
"s c #C85F52",
"d c #CB6352",
"f c #CE6752",
"g c #E3655F",
"h c #E6695F",
"j c #FF6B6B",
"k c #73865F",
"l c #7B8C6B",
"z c #879478",
"x c #8D9C78",
"c c #E3827C",
"v c #A4AE9A",
"b c #B1BAA9",
"n c #B6BCAF",
"m c #BCC4AF",
"M c #C4CABC",
"N c #CBCEC7",
"B c #CCD0C8",
"V c #D1D5CB",
"C c #DADCD8",
"Z c #E7E7E7",
"A c None",
/* pixels */
"AAAAAAAAAAAAAAAAAAAAAAAAAAAA",
"AAAAAAAAAAAAAAAAAAAAAAAAAAAA",
"AAAAAAAAAAAAAAAAAZBZZAAAAAAA",
"AAAAAAAAAAAAAAAZ =&& qZAAAAA",
"AAAAAAAAAAAAAVw .+f2X 6CAAAA",
"AAAAAAAAAAAAzoO2@ijfa: xAAAA",
"AAAAAAAAAAAb aaj <sO%% oZAAA",
"AAAAAAAAAAZ,Xjjjgj<#kk* eAAA",
"AAAAAAAAAAy jjjjjj<tll>$ vAA",
"AAAAAAAAAZ 1jjjjjj<5ll>co AA",
"AAAAAAAAA0 gjjjjjj<5ll>7u AA",
"AAAAAAAAN +hjjjjjji%ll>dg AA",
"AAAAAAAAr+%%jjjjjjj.$6 hg AA",
"AAAAAAA9.ff%jjjjjjf3  @jg AA",
"AAAAAAB&sjj;pjjjjjjj  jj1 AA",
"AAAAAn&#jjjj;jjjjjjjgjjj 8AA",
"AAAAM+#jjjjj;;%%hjjjjjjj&vAA",
"AAAm64jjjjjjjjfiifjjjjjf&lAA",
"AZnO-jjjjjjjjjjjjjjjjjjf&BAA",
"AmO .XXXXXXXXXXXXXXXXXXX&vAA"
};
