/* XPM */
static char *parrot_frame_5[] = {
/* columns rows colors chars-per-pixel */
"28 20 51 1 ",
"  c #213908",
". c #243D08",
"X c #3D3F26",
"o c #274108",
"O c #2A4508",
"+ c #2D4A08",
"@ c #304E08",
"# c #335208",
"$ c #395A08",
"% c #2C4314",
"& c #355014",
"* c #3B5814",
"= c #384E21",
"- c #416014",
"; c #404326",
": c #43582D",
"> c #525C26",
", c #4C652D",
"< c #4E633A",
"1 c #51673A",
"2 c #6B5E44",
"3 c #596D46",
"4 c #5C7140",
"5 c #657D40",
"6 c #657752",
"7 c #697B57",
"8 c #6B7A5C",
"9 c #707F61",
"0 c #748465",
"q c #778568",
"w c #7B8C6B",
"e c #849078",
"r c #905280",
"t c #935680",
"y c #AC589D",
"u c #9C6380",
"i c #B5659D",
"p c #C85FBB",
"a c #CE67BB",
"s c #E669D9",
"d c #FF6BF7",
"f c #929C87",
"g c #9DA693",
"h c #A6AF9D",
"j c #A8B0A0",
"k c #CCD0C8",
"l c #CED1CB",
"z c #D1D5CB",
"x c #DADCD8",
"c c #E7E7E7",
"v c None",
/* pixels */
"vvvvvvvvvvvvvvvvvvvvvvvvvvvv",
"vvvvvvvvvvvvvvvvvvvvvvvvvvvv",
"vvvvvvvvvvvvvvvvvvvvvvvvvvvv",
"vvvvvvvvvvvvvvvvvvvvvvvvvvvv",
"vvvvvvvvvvvvvvxllzvvvvvvvvvv",
"vvvvvvvvvvvvg0 oo 4gvvvvvvvv",
"vvvvvvvvvvl0 @yiiy@ evvvvvvv",
"vvvvvvvvvl< sdddddds%wvvvvvv",
"vvvvvvvvve@ds@ts %%  8vvvvvv",
"vvvvvvvvh ids@@$%ww& :vvvvvv",
"vvvvvvvv=Odddid>%ww-  9vvvvv",
"vvvvvvv5 dddddd>-ww-# gvvvvv",
"vvvvvv7 2dddddd2%ww-;y1xvvvv",
"vvvvvv: dddddddd.ww*ui$zvvvv",
"vvvvv9 ruddddddd #, di lvvvv",
"vvvvc@+s>dddddddp   dy lvvvv",
"vvvv6Oad$2ssdddddXXddt3cvvvv",
"vvvf pdds$$$iiddddddsogvvvvv",
"vc6 pddddiiiu$$dddddsogvvvvv",
"vj  XXXXXXXX....XXXX. gvvvvv"
};
