/* XPM */
static char *parrot_frame_8[] = {
/* columns rows colors chars-per-pixel */
"28 20 56 1 ",
"  c #213908",
". c #243D08",
"X c #274108",
"o c #2A4508",
"O c #2D4A08",
"+ c #304E08",
"@ c #335208",
"# c #365608",
"$ c #395A08",
"% c #2C4314",
"& c #3D4319",
"* c #384E21",
"= c #3A4F24",
"- c #3B5124",
"; c #404819",
": c #465019",
"> c #526019",
", c #4C771C",
"< c #43582D",
"1 c #74583A",
"2 c #775C3A",
"3 c #4E633A",
"4 c #5A733A",
"5 c #6B6729",
"6 c #536540",
"7 c #596D46",
"8 c #627946",
"9 c #687B52",
"0 c #836D3A",
"q c #90634A",
"w c #9C734A",
"e c #AC6D5B",
"r c #B5795B",
"t c #C8776B",
"y c #CB7B6B",
"u c #698051",
"i c #6B8052",
"p c #6E805D",
"a c #7B8C6B",
"s c #89977B",
"d c #CE806B",
"f c #E3827C",
"g c #E6867C",
"h c #8D9981",
"j c #8F9A84",
"k c #929C87",
"l c #9DA693",
"z c #A6AF9D",
"x c #A6B09D",
"c c #FF8C8C",
"v c #B9C0B2",
"b c #BFC5B9",
"n c #CCD0C8",
"m c #CED1CB",
"M c #E7E7E7",
"N c None",
/* pixels */
"NNNNNNNNNNNNNNNNNNNNNNNNNNNN",
"NNNNNNNNNNNNNNMnj7b9nMNNNNNN",
"NNNNNNNNNNNNNMh<   o< NNNNNN",
"NNNNNNNNNNNNM%Oyffff# kNNNNN",
"NNNNNNNNNNNM Oo#gO.% O3NNNNN",
"NNNNNNNNNNx%O0oOfoaa*  xNNNN",
"NNNNNNNNNN  dccef<aa,  *NNNN",
"NNNNNNNNNNo@ccccg<aa91c aNNN",
"NNNNNNNNNl fccccf<aa91c;=MNN",
"NNNNNNNNN6 cccccgoaaOtc>%xNN",
"NNNNNNNNn ecccccg$84.dcd%aNN",
"NNNNNNNN Xrcccccg+ ..cc5%aNN",
"NNNNNNNM :$gcccccdO.5cc>=MNN",
"NNNNNNM :c0gccccccd0ccc&-NNN",
"NNNNMM qdc050dccccccccd.vNNN",
"NNNMs Ogcccg$$>cccccccc.MNNN",
"NNNp.0ccccccccccccccccw.MNNN",
"NNM 2dccccccccccccccccc.vNNN",
"NM<Occccccccccccccccccc.-NNN",
"Nb< &&&&&&&&&&&&&&&&&&&  NNN"
};
