/* XPM */
static char *parrot_frame_3[] = {
/* columns rows colors chars-per-pixel */
"28 20 57 1 ",
"  c #213908",
". c #243D08",
"X c #274108",
"o c #2A4508",
"O c #2D4A08",
"+ c #304E08",
"@ c #2D5205",
"# c #335208",
"$ c #365608",
"% c #395A08",
"& c #2C4314",
"* c #384327",
"= c #3C5620",
"- c #3B5124",
"; c #3D5324",
": c #415027",
"> c #43582D",
", c #455A30",
"< c #496324",
"1 c #4D6027",
"2 c #4E633A",
"3 c #51673A",
"4 c #536540",
"5 c #596D46",
"6 c #606746",
"7 c #6B7A5C",
"8 c #655865",
"9 c #685C65",
"0 c #746D65",
"q c #6B8052",
"w c #70825F",
"e c #728362",
"r c #748465",
"t c #7B8C6B",
"y c #849078",
"u c #89977B",
"i c #7C6384",
"p c #7F6784",
"a c #887384",
"s c #926DA2",
"d c #9B79A2",
"f c #8F9A84",
"g c #929C87",
"h c #9CAB87",
"j c #96A38A",
"k c #9DA693",
"l c #A8B0A0",
"z c #B9C0B2",
"x c #AF80C1",
"c c #BF82E0",
"v c #C286E0",
"b c #D68CFF",
"n c #CBCEC7",
"m c #CED1CB",
"M c #DADCD8",
"N c #E7E7E7",
"B c None",
/* pixels */
"BBBBBBBBBBBBBBBBBBBBBBBBBBBB",
"BBBBBBBBBBBBBBBBBBBBBBBBBBBB",
"BBBBBBBNNNNNBBBBBBBBBBBBBBBB",
"BBBBBBNj;<euNBBBBBBBBBBBBBBB",
"BBBBMy .***. 4BBBBBBBBBBBBBB",
"BBBz2 0xbbba0 4BBBBBBBBBBBBB",
"BBB- bxOab889+ mBBBBBBBBBBBB",
"BBt&1bb.. 2w%  $BBBBBBBBBBBB",
"BB7 bbb6c=ttwo:.nBBBBBBBBBBB",
"BB7$bbbbc@ttw8ba ,BBBBBBBBBB",
"BB>$bbbbc>ttw8bbi>BBBBBBBBBB",
"BgOxbbbbcoqtw8bbc gBBBBBBBBB",
"Bl cbbbbbp3t%0bbv+fBBBBBBBBB",
"BN>cbbbbb+X3.0bbb+5BBBBBBBBB",
"BB>cbbbbbd  #bbbbs5BBBBBBBBB",
"Bho$bbbbbb6$bbbbbs nBBBBBBBB",
"Bk %vvvvbbbbbbbbbx: NBBBBBBB",
"Nr+%%%%%dbbbbbbbbbb: NBBBBBB",
"M5+ad66%%%0bbbbbbbbxO>NBBBBB",
"Bf .*.......********  lBBBBB"
};
