/* XPM */
static char *parrot_frame_2[] = {
/* columns rows colors chars-per-pixel */
"28 20 58 1 ",
"  c #213908",
". c #243D08",
"X c #254107",
"o c #274108",
"O c #2A4508",
"+ c #2D4A08",
"@ c #304E08",
"# c #345607",
"$ c #335208",
"% c #365608",
"& c #395A08",
"* c #2C4314",
"= c #2E4927",
"- c #384E21",
"; c #375527",
": c #416014",
"> c #43582D",
", c #465C2D",
"< c #436527",
"1 c #4A6721",
"2 c #4C6824",
"3 c #55792A",
"4 c #576F3A",
"5 c #5A733A",
"6 c #3C5846",
"7 c #3F5C46",
"8 c #456446",
"9 c #4B6D46",
"0 c #536540",
"q c #596D46",
"w c #5C7140",
"e c #657752",
"r c #6B7A5C",
"t c #707F61",
"y c #6E805D",
"u c #74875C",
"i c #7B8C6B",
"p c #89977B",
"a c #8E9D7E",
"s c #577784",
"d c #638884",
"f c #6487A2",
"g c #6D93A2",
"h c #7196C1",
"j c #749AC1",
"k c #779EC1",
"l c #A4AE9A",
"z c #A6AF9D",
"x c #A6B09D",
"c c #B9C0B2",
"v c #C1C6BC",
"b c #82AAE0",
"n c #8CB5FF",
"m c #CBCEC7",
"M c #CED1CB",
"N c #D1D5CB",
"B c #E7E7E7",
"V c None",
/* pixels */
"VVVVVVVVVVVVVVVVVVVVVVVVVVVV",
"VVVVVVVVVVVVVVVVVVVVVVVVVVVV",
"VVVVVBur>rlBVVVVVVVVVVVVVVVV",
"VVVBy.+%%+ *iVVVVVVVVVVVVVVV",
"VVB:=snnnnn6 BVVVVVVVVVVVVVV",
"VVi ngnhfffg  BVVVVVVVVVVVVV",
"Vt s9Og=qq@+  qVVVVVVVVVVVVV",
"Bq+bjOg=iii. + mVVVVVVVVVVVV",
"v fnnnd.ii5.nk+eVVVVVVVVVVVV",
"4 nnnnn=iiiXnnk.cVVVVVVVVVVV",
"oOnnnnn=ii3#nnn=2VVVVVVVVVVV",
" 7nnnnn=1i,jnnn=pBVVVVVVVVVV",
"$Oknnnn< + bnnn=pVVVVVVVVVVV",
"- nnnnndo @nnnn;exVVVVVVVVVV",
"z fnnnnnd@nnnnnk exVVVVVVVVV",
"N+@nnnnnnnnnnnnnj+* BVVVVVVV",
"N+@&bbbnnnnnnnnnnk<o aVVVVVV",
"M @&&&&dnnnnnnnnnnnd6 wVVVVV",
"M fkggg&dnnnnnnnnnnnn8 0VVVV",
"M  ====..============.  iVVV"
};
