/* XPM */
static char *parrot_frame_4[] = {
/* columns rows colors chars-per-pixel */
"28 20 54 1 ",
"  c #213908",
". c #243D08",
"X c #274108",
"o c #2A4508",
"O c #2D4A08",
"+ c #335208",
"@ c #395A08",
"# c #2C4314",
"$ c #3D4327",
"% c #384E21",
"& c #3A4F24",
"* c #404827",
"= c #465027",
"- c #455A30",
"; c #4C652D",
": c #526027",
"> c #526D2D",
", c #4E633A",
"< c #596D46",
"1 c #5A6B48",
"2 c #686246",
"3 c #6B6746",
"4 c #745865",
"5 c #7D6565",
"6 c #836D65",
"7 c #6B8052",
"8 c #70825F",
"9 c #778568",
"0 c #7B8C6B",
"q c #89977B",
"w c #8B987E",
"e c #906384",
"r c #996F84",
"t c #9C7384",
"y c #AC6DA2",
"u c #AF71A2",
"i c #B579A2",
"p c #C877C1",
"a c #8F9A84",
"s c #96A38A",
"d c #9AA68E",
"f c #9DA693",
"g c #A6AF9D",
"h c #C1C6BC",
"j c #CE80C1",
"k c #E382E0",
"l c #E686E0",
"z c #FF8CFF",
"x c #CED1CB",
"c c #D1D5CE",
"v c #D8DAD5",
"b c #DADCD8",
"n c #E7E7E7",
"m c None",
/* pixels */
"mmmmmmmmmmmmmmmmmmmmmmmmmmmm",
"mmmmmmmmmmmmmmmmmmmmmmmmmmmm",
"mmmmmmmmmmmmmmmmmmmmmmmmmmmm",
"mmmmmmmmmmmnnnnmmmmmmmmmmmmm",
"mmmmmmmmmbxx888hnmmmmmmmmmmm",
"mmmmmmmma% o44oo nmmmmmmmmmm",
"mmmmmm01 yiizzzie nmmmmmmmmm",
"mmmmmm9 zj=zzzzzlO<mmmmmmmmm",
"mmmmma zzu kp ##  ,mmmmmmmmm",
"mmmmb%izzz5zo;00 o gmmmmmmmm",
"mmmmwoizzzzzO>00+@o%mmmmmmmm",
"mmmn 3zzzzzz@>00X66 nmmmmmmm",
"mmmn.tzzzzzzX>00@6z$qnmmmmmm",
"mmmn.zzzzzzz2>07.jz=&nmmmmmm",
"mmmn.6zzzzzzk >O$zz=&nmmmmmm",
"mmm0 OjzzzzzlO  :zz:&nmmmmmm",
"mmc#*i@jzzzzzp$:zzz.smmmmmmm",
"mm-Xti@@@izzzzzzzz6 nmmmmmmm",
"mn rzzii@@@6zzzzzzz dmmmmmmm",
"mf  $$$$....$$$$$$$ vmmmmmmm"
};
