/* XPM */
static char *nyan_frame__[] = {
/* columns rows colors chars-per-pixel */
"25 15 154 2",
"   c #00070E",
".  c #07090A",
"X  c #070B0F",
"o  c #0C0C0C",
"O  c #000A14",
"+  c #100D1C",
"@  c #0F1011",
"#  c #111111",
"$  c #161616",
"%  c #171717",
"&  c #152900",
"*  c #0B3204",
"=  c #001326",
"-  c #001428",
";  c #180F3E",
":  c #001932",
">  c #001B37",
",  c #032D37",
"<  c #02203E",
"1  c #192633",
"2  c #122539",
"3  c #202020",
"4  c #242424",
"5  c #262626",
"6  c #2B2525",
"7  c #2A2A2A",
"8  c #3E2525",
"9  c #3F3127",
"0  c #3C3229",
"q  c #25323F",
"w  c #333333",
"e  c #383838",
"r  c #3F3F3F",
"t  c #431C38",
"y  c #403326",
"u  c #4B3C2D",
"i  c #284E00",
"p  c #1B7F3D",
"a  c #626800",
"s  c #764939",
"d  c #002040",
"f  c #0B2640",
"g  c #0F2643",
"h  c #00274E",
"j  c #03284C",
"k  c #002952",
"l  c #002A54",
"z  c #002C59",
"x  c #003366",
"c  c #1E2974",
"v  c #322E75",
"b  c #522244",
"n  c #065062",
"m  c #414141",
"M  c #464646",
"N  c #4C4646",
"B  c #4A4A4A",
"V  c #4D4D4D",
"C  c #584E44",
"Z  c #514C51",
"A  c #575757",
"S  c #54575A",
"D  c #5D5D5D",
"F  c #775E5E",
"G  c #5B5E61",
"H  c #614C61",
"J  c #6D4C6D",
"K  c #625962",
"L  c #616161",
"P  c #646464",
"I  c #686868",
"U  c #7B6C6C",
"Y  c #6F706F",
"T  c #737373",
"R  c #767676",
"E  c #7B7B7B",
"W  c #7D7D7D",
"Q  c #7F7F7F",
"!  c #851601",
"~  c #930D13",
"^  c #BF1119",
"/  c #F52A02",
"(  c #894100",
")  c #885900",
"_  c #827300",
"`  c #FC7800",
"'  c #1B800C",
"]  c #4D9801",
"[  c #2CCB13",
"{  c #B4BF00",
"}  c #FBA500",
"|  c #F0D300",
" . c #B28E6B",
".. c #B6926E",
"X. c #BF9973",
"o. c #212E87",
"O. c #263498",
"+. c #432AAB",
"@. c #104586",
"#. c #1A5091",
"$. c #1A5195",
"%. c #5536D9",
"&. c #1D7EF5",
"*. c #4D43E9",
"=. c #5247F7",
"-. c #885788",
";. c #AA5599",
":. c #A261A2",
">. c #AE68AE",
",. c #C576C5",
"<. c #D17DD1",
"1. c #FF68CE",
"2. c #FF6DD3",
"3. c #FF77DD",
"4. c #FF79DF",
"5. c #FF7BE1",
"6. c #FF7DE3",
"7. c #969696",
"8. c #999999",
"9. c #A68F8F",
"0. c #A09999",
"q. c #A89999",
"w. c #B09999",
"e. c #B59999",
"r. c #A0A0A0",
"t. c #A6A6A6",
"y. c #D79999",
"u. c #F69999",
"i. c #FF9999",
"p. c #F7C694",
"a. c #FFCA9E",
"s. c #FFC5A7",
"d. c #FFC1AF",
"f. c #D882D8",
"g. c #E083DD",
"h. c #FFA4C8",
"j. c #FFB3CC",
"k. c #FFAFD2",
"l. c #E086E0",
"z. c #FF80E6",
"x. c #FF83E9",
"c. c #F08AE9",
"v. c #FF8EEB",
"b. c #FF88EE",
"n. c #FF8AF0",
"m. c #FF8EF4",
"M. c #F794F7",
"N. c #FF90F6",
"B. c #FF94FA",
"V. c #FF97FD",
"C. c #FF9CF9",
"Z. c #FF99FF",
"A. c #FFA0F0",
"S. c #CFCFCF",
/* pixels */
"b b b b b t 9 y y y y y y y y y y y 0 l x x x x x ",
"^ ^ ^ ^ ~ s p.d.j.j.j.j.j.j.j.j.j.d.p.C h x x x x ",
"/ / / / !  .s.A.Z.Z.Z.1.N.6.5.Z.Z.A.s. .> x x x x ",
"` ` ` ` (  .C.4.z.Z.Z.Z.Z.Z.f.,.N.m.C. .> x h z x ",
"} } } } )  .C.Z.Z.Z.Z.Z.Z.<.H Z ;.x.C. .> < V q z ",
"| | | | _  .C.Z.Z.Z.5.6.Z.:.D 7.K >.C. .  G 8.B h ",
"{ { { { a  .C.Z.b.V.Z.Z.Z.:.D 8.8.A 5 5 P 8.8.B h ",
"] ] ] i &  .C.Z.3.B.Z.4.c.J E 8.8.8.8.8.8.8.8.T 2 ",
"[ ' * Y r  .v.2.Z.Z.Z.b.g.e 8.r.t.I 8.8.8.S.M 8.5 ",
"p D W T r  .C.Z.Z.B.n.Z.l.e q.9.5 I 8.R P r N w.6 ",
"5 8.7 n ,  .k.x.b.N.5.Z.l.e y.u.W W 7.P 8.D e.i.8 ",
"$.5 #.&.@. .a.h.N.Z.Z.Z.M.-.U w.L % 5 o 5 o 0.F g ",
"=.=.=.*.v 5 ..X.X.X.X.X.X.X.u L T T T T T T S d x ",
"%.%.%.+.M 8.+ ; w m O : : : : X V 3 = % V @ d x x ",
"O.O.O.c # 5 c o.1 3 - x x x x j 5 # k f 5 . x x x "
};
