/* XPM */
static char * nyan_frame_1_xpm[] = {
"25 15 165 2",
"  	c None",
". 	c #522244",
"+ 	c #3F1E31",
"@ 	c #403326",
"# 	c #2C2F32",
"$ 	c #002C59",
"% 	c #003366",
"& 	c #BF1119",
"* 	c #7C0B10",
"= 	c #947256",
"- 	c #FFCC99",
"; 	c #FFBBBB",
"> 	c #FFB3CC",
", 	c #FFC7A2",
"' 	c #D8AD82",
") 	c #3A3C3E",
"! 	c #F52A02",
"~ 	c #490C00",
"{ 	c #F0C090",
"] 	c #FFBCB9",
"^ 	c #FF9DF7",
"/ 	c #FF99FF",
"( 	c #FF5FC5",
"_ 	c #FF6BD1",
": 	c #FF8DF3",
"< 	c #FFA6E6",
"[ 	c #745D46",
"} 	c #002952",
"| 	c #FC7800",
"1 	c #4C2400",
"2 	c #F0B6A2",
"3 	c #FF66CC",
"4 	c #FF92F8",
"5 	c #D882D8",
"6 	c #C576C5",
"7 	c #FF8AF0",
"8 	c #FF94FA",
"9 	c #FFA8E0",
"0 	c #00274F",
"a 	c #00264C",
"b 	c #FBA500",
"c 	c #4C3100",
"d 	c #D17DD1",
"e 	c #614C61",
"f 	c #514C51",
"g 	c #AA66AA",
"h 	c #FF7CE2",
"i 	c #FF90F6",
"j 	c #FFA8E2",
"k 	c #021529",
"l 	c #4D4D4D",
"m 	c #25323F",
"n 	c #C4AC00",
"o 	c #3C3400",
"p 	c #615600",
"q 	c #F0D300",
"r 	c #483F00",
"s 	c #FF68CE",
"t 	c #A261A2",
"u 	c #5D5D5D",
"v 	c #969696",
"w 	c #625962",
"x 	c #AE68AE",
"y 	c #999999",
"z 	c #4A4A4A",
"A 	c #889000",
"B 	c #383838",
"C 	c #8F8F8F",
"D 	c #222222",
"E 	c #3D4100",
"F 	c #292B00",
"G 	c #FF86EC",
"H 	c #575757",
"I 	c #262626",
"J 	c #646464",
"K 	c #438500",
"L 	c #142700",
"M 	c #868686",
"N 	c #2A2A2A",
"O 	c #000000",
"P 	c #FF72D8",
"Q 	c #F069C9",
"R 	c #6D4C6D",
"S 	c #7B7B7B",
"T 	c #767676",
"U 	c #122539",
"V 	c #2CCB13",
"W 	c #26B210",
"X 	c #082903",
"Y 	c #3D3D3D",
"Z 	c #888888",
"` 	c #FF80E6",
" .	c #E073CD",
"..	c #A0A0A0",
"+.	c #A6A6A6",
"@.	c #686868",
"#.	c #CFCFCF",
"$.	c #464646",
"%.	c #20D15C",
"&.	c #083919",
"*.	c #041C0C",
"=.	c #FF8FF5",
"-.	c #E086E0",
";.	c #A89999",
">.	c #A68F8F",
",.	c #4C4646",
"'.	c #B59999",
").	c #2B2525",
"!.	c #0EA7CB",
"~.	c #0A819C",
"{.	c #02191F",
"].	c #F0BB99",
"^.	c #FF77DD",
"/.	c #FF85EB",
"(.	c #D79999",
"_.	c #F69999",
":.	c #7F7F7F",
"<.	c #FF9999",
"[.	c #3E2525",
"}.	c #1E7FF7",
"|.	c #1E80F7",
"1.	c #09264A",
"2.	c #FFC7A4",
"3.	c #FF95D5",
"4.	c #FF97FD",
"5.	c #F794F7",
"6.	c #885788",
"7.	c #7B6C6C",
"8.	c #B09999",
"9.	c #161616",
"0.	c #0C0C0C",
"a.	c #A09999",
"b.	c #775E5E",
"c.	c #0F2643",
"d.	c #5247F7",
"e.	c #4D43E9",
"f.	c #322E75",
"g.	c #423B34",
"h.	c #BF9973",
"i.	c #4B3C2D",
"j.	c #616161",
"k.	c #737373",
"l.	c #54575A",
"m.	c #002040",
"n.	c #5536D9",
"o.	c #432AAB",
"p.	c #434343",
"q.	c #120B2D",
"r.	c #000810",
"s.	c #2E2E2E",
"t.	c #001020",
"u.	c #001932",
"v.	c #070B0F",
"w.	c #001326",
"x.	c #0F1011",
"y.	c #263498",
"z.	c #1D2877",
"A.	c #111111",
"B.	c #070917",
"C.	c #202C81",
"D.	c #172635",
"E.	c #002E5C",
"F.	c #03284C",
"G.	c #0B2640",
"H.	c #082645",
". . . . . . + @ @ @ @ @ @ @ @ @ @ @ @ # $ % % % % ",
"& & & & & * = - ; > > > > > > > > > , ' ) $ % % % ",
"! ! ! ! ! ~ { ] ^ / / / ( / _ : / / < - [ } % % % ",
"| | | | | 1 2 / 3 4 / / / / 5 6 / 7 8 9 [ 0 a $ % ",
"b b b b b c 2 / / / / / / d e f g h i j [ k l m $ ",
"n o o p q r 2 / / / / s i t u v w x / j [ u y z 0 ",
"A B C D E F 2 / / G / / / t u y y H I I J y y z a ",
"K L B M N O 2 / / P / / Q R S y y y y y y y y T U ",
"V W X Y Z D 2 h ` / / /  .B y ..+.@.y y y #.$.y I ",
"%.%.%.&.*.O 2 / / / =.i -.B ;.>.I @.y T J Y ,.'.).",
"!.!.!.!.~.{.].j ^.8 /.G -.B (._.:.S v J y u '.<.[.",
"}.|.|.}.|.1.{ 2.3.4./ / 5.6.7.8.J 9.D 0.I 0.a.b.c.",
"d.d.d.e.f.I g.h.h.h.h.h.h.h.i.j.k.k.k.k.k.k.l.m.% ",
"n.n.n.o.$.y p.q.r.$.s.t.u.u.u.v.l D w.9.l x.m.% % ",
"y.y.y.z.A.I B.C.t.D D.E.% % % F.I A.} G.I H.% % % "};
