/* XPM */
static char *nyan_frame__[] = {
/* columns rows colors chars-per-pixel */
"25 15 155 2",
"   c #000000",
".  c #00070F",
"X  c #0E0E0E",
"o  c #0B1700",
"O  c #061B02",
"+  c #000B17",
"@  c #030C16",
"#  c #000F1E",
"$  c #02191F",
"%  c #131313",
"&  c #151515",
"*  c #1B1B1B",
"=  c #1C1C1C",
"-  c #1F1F1F",
";  c #0B3204",
":  c #363900",
">  c #27221C",
",  c #0B0F2D",
"<  c #001122",
"1  c #00162C",
"2  c #001933",
"3  c #001A34",
"4  c #3F1E31",
"5  c #03252E",
"6  c #1E262E",
"7  c #152636",
"8  c #122539",
"9  c #14273A",
"0  c #262626",
"q  c #2A2A2A",
"w  c #2C2C2C",
"e  c #2C2F32",
"r  c #383838",
"t  c #3B3B3B",
"y  c #3A3C3E",
"u  c #3C3C3C",
"i  c #490C00",
"p  c #7C0B10",
"a  c #4C2400",
"s  c #4C3100",
"d  c #483F00",
"f  c #403326",
"g  c #145C08",
"h  c #3C7501",
"j  c #191041",
"k  c #18154A",
"l  c #052749",
"z  c #00274E",
"x  c #002850",
"c  c #002953",
"v  c #002C58",
"b  c #002E5D",
"n  c #212646",
"m  c #373E44",
"M  c #003060",
"N  c #003366",
"B  c #522244",
"V  c #643C64",
"C  c #285059",
"Z  c #414141",
"A  c #484848",
"S  c #4D4D4D",
"D  c #5C4242",
"F  c #554755",
"G  c #544C54",
"H  c #5E4D5E",
"J  c #5A5A5A",
"K  c #5D5D5D",
"L  c #5F5F5F",
"P  c #745D46",
"I  c #634463",
"U  c #614C61",
"Y  c #616161",
"T  c #6F6161",
"R  c #6D6D6D",
"E  c #737373",
"W  c #777777",
"Q  c #7A7A7A",
"!  c #7D7D7D",
"~  c #BF1119",
"^  c #F52A02",
"/  c #FC7800",
"(  c #947256",
")  c #847373",
"_  c #4D9801",
"`  c #2CCB13",
"'  c #189E45",
"]  c #B4BF00",
"[  c #FBA500",
"{  c #F0D300",
"}  c #BF9973",
"|  c #263498",
" . c #165FB9",
".. c #5536D9",
"X. c #196ED5",
"o. c #1A70D8",
"O. c #1E7FF7",
"+. c #5247F7",
"@. c #A261A2",
"#. c #B26BB2",
"$. c #C95BAC",
"%. c #FF5FC5",
"&. c #C979C9",
"*. c #D17DD1",
"=. c #FF66CC",
"-. c #FF68CE",
";. c #FF6BD1",
":. c #FF72D8",
">. c #FF77DD",
",. c #0C92B2",
"<. c #828282",
"1. c #848484",
"2. c #8B8B8B",
"3. c #8D8D8D",
"4. c #9D8888",
"5. c #919191",
"6. c #979797",
"7. c #999999",
"8. c #A69999",
"9. c #AA9999",
"0. c #AF9999",
"q. c #B39999",
"w. c #B3B3B3",
"e. c #CE9999",
"r. c #DD9999",
"t. c #F09999",
"y. c #FF9999",
"u. c #D8AD82",
"i. c #F0BB99",
"p. c #F0B6A2",
"a. c #FFBBBB",
"s. c #FFBCB9",
"d. c #F0C090",
"f. c #FFCC99",
"g. c #FFC7A2",
"h. c #FFC7A4",
"j. c #D580D5",
"k. c #DC84DC",
"l. c #FF95D5",
"z. c #FFB3CC",
"x. c #E88BE8",
"c. c #FF80E6",
"v. c #FF85EB",
"b. c #FF86EC",
"n. c #FF8AF0",
"m. c #FF8DF3",
"M. c #FF8FF5",
"N. c #FF90F6",
"B. c #FF9DF7",
"V. c #FF92F8",
"C. c #FF94FA",
"Z. c #FF97FD",
"A. c #FF99FF",
"S. c #FFA6E6",
"D. c #FFA8E0",
/* pixels */
"B B B B B B 4 f f f f f f f f f f f f e v N N N N ",
"~ ~ ~ ~ ~ p ( f.a.z.z.z.z.z.z.z.z.z.g.u.y b N N N ",
"^ ^ ^ ^ ^ i d.s.B.A.A.A.%.A.;.m.A.A.S.f.P x N N N ",
"/ / / / / a p.A.=.V.A.A.A.A.A.&.j.n.C.D.P c b x M ",
"[ [ [ [ [ s p.A.A.A.A.A.A.A.#.G H $.N.D.P x 9 S 8 ",
"{ { { { { d p.A.A.A.A.-.N.A.V <.3.F k.D.P @ ! 7.0 ",
"] ] ] ] ] : p.A.A.b.A.A.A.A.V <.7.7.r 0 0 <.7.7.0 ",
"_ _ _ _ h o p.A.A.:.A.A.:.*.U 3.7.7.7.7.7.7.7.7.K ",
"` ` g ; O   p.>.c.A.A.A.b.@.K 7.w.Q 1.7.7.7.w.K 6.",
"' & Q 5.R 6 p.Z.A.A.M.N.A.@.K 0.) 0 1.7.J ! 0 T q.",
",.C S r 5 $ i.D.>.C.v.b.A.@.K t.r.R 2.<.W 6.Y e.y.",
"O.o. . .X.l i.h.l.Z.A.A.A.x.I 4.9.Z = * & 0 q 8.D ",
"+.+.+.+.+.k r } } } } } } } } > E E E E E E E m c ",
"..........j } 6 < X S = 1 2 2 2 < w A . + u r 3 N ",
"| | | | | , 0 n b l 0 X v N N N b 7 0 # v 6 = 3 N "
};
