/* XPM */
static char * nyan_frame_2_xpm[] = {
"25 15 153 2",
"  	c None",
". 	c #522244",
"+ 	c #431C38",
"@ 	c #3F3127",
"# 	c #403326",
"$ 	c #3C3229",
"% 	c #002A54",
"& 	c #003366",
"* 	c #BF1119",
"= 	c #930D13",
"- 	c #764939",
"; 	c #F7C694",
"> 	c #FFC1AF",
", 	c #FFB3CC",
"' 	c #584E44",
") 	c #03284C",
"! 	c #F52A02",
"~ 	c #851601",
"{ 	c #B28E6B",
"] 	c #FFC5A7",
"^ 	c #FFA0F0",
"/ 	c #FF99FF",
"( 	c #FF68CE",
"_ 	c #FF90F6",
": 	c #FF7DE3",
"< 	c #FF7BE1",
"[ 	c #001B37",
"} 	c #FC7800",
"| 	c #894100",
"1 	c #FF9CF9",
"2 	c #FF79DF",
"3 	c #FF80E6",
"4 	c #D882D8",
"5 	c #C576C5",
"6 	c #FF8EF4",
"7 	c #00274E",
"8 	c #002C59",
"9 	c #FBA500",
"0 	c #885900",
"a 	c #D17DD1",
"b 	c #614C61",
"c 	c #514C51",
"d 	c #AA5599",
"e 	c #FF83E9",
"f 	c #02203E",
"g 	c #4D4D4D",
"h 	c #25323F",
"i 	c #F0D300",
"j 	c #827300",
"k 	c #A261A2",
"l 	c #5D5D5D",
"m 	c #969696",
"n 	c #625962",
"o 	c #AE68AE",
"p 	c #00070E",
"q 	c #5B5E61",
"r 	c #999999",
"s 	c #4A4A4A",
"t 	c #6F7509",
"u 	c #252525",
"v 	c #6C720A",
"w 	c #B2BD00",
"x 	c #626800",
"y 	c #FF88EE",
"z 	c #FF97FD",
"A 	c #575757",
"B 	c #646464",
"C 	c #2A2A2A",
"D 	c #254900",
"E 	c #152900",
"F 	c #FF77DD",
"G 	c #FF94FA",
"H 	c #F08AE9",
"I 	c #6D4C6D",
"J 	c #7B7B7B",
"K 	c #737373",
"L 	c #122539",
"M 	c #227C13",
"N 	c #7D7D7D",
"O 	c #3F3F3F",
"P 	c #FF8EEB",
"Q 	c #FF6DD3",
"R 	c #E083DD",
"S 	c #383838",
"T 	c #A0A0A0",
"U 	c #A6A6A6",
"V 	c #686868",
"W 	c #CFCFCF",
"X 	c #464646",
"Y 	c #20D15C",
"Z 	c #14843A",
"` 	c #083417",
" .	c #6F706F",
"..	c #FF8AF0",
"+.	c #E086E0",
"@.	c #A89999",
"#.	c #A68F8F",
"$.	c #767676",
"%.	c #4C4646",
"&.	c #B59999",
"*.	c #2B2525",
"=.	c #0EA7CB",
"-.	c #075568",
";.	c #032D37",
">.	c #FFAFD2",
",.	c #D79999",
"'.	c #F69999",
").	c #FF9999",
"!.	c #3E2525",
"~.	c #1E7FF7",
"{.	c #1E80F7",
"].	c #104586",
"^.	c #FFCA9E",
"/.	c #FFA4C8",
"(.	c #F794F7",
"_.	c #885788",
":.	c #7B6C6C",
"<.	c #B09999",
"[.	c #616161",
"}.	c #171717",
"|.	c #0C0C0C",
"1.	c #A09999",
"2.	c #775E5E",
"3.	c #0F2643",
"4.	c #5247F7",
"5.	c #4D43E9",
"6.	c #322E75",
"7.	c #B6926E",
"8.	c #BF9973",
"9.	c #4B3C2D",
"0.	c #54575A",
"a.	c #002040",
"b.	c #5536D9",
"c.	c #432AAB",
"d.	c #100D1C",
"e.	c #180F3E",
"f.	c #333333",
"g.	c #414141",
"h.	c #000A14",
"i.	c #001932",
"j.	c #070B0F",
"k.	c #202020",
"l.	c #001326",
"m.	c #0F1011",
"n.	c #263498",
"o.	c #1E2974",
"p.	c #111111",
"q.	c #212E87",
"r.	c #192633",
"s.	c #001428",
"t.	c #002952",
"u.	c #0B2640",
"v.	c #07090A",
". . . . . + @ # # # # # # # # # # # $ % & & & & & ",
"* * * * = - ; > , , , , , , , , , > ; ' ) & & & & ",
"! ! ! ! ~ { ] ^ / / / ( _ : < / / ^ ] { [ & & & & ",
"} } } } | { 1 2 3 / / / / / 4 5 _ 6 1 { [ & 7 8 & ",
"9 9 9 9 0 { 1 / / / / / / a b c d e 1 { [ f g h 8 ",
"i i i i j { 1 / / / < : / k l m n o 1 { p q r s 7 ",
"t u v w x { 1 / y z / / / k l r r A u u B r r s 7 ",
"u r C D E { 1 / F G / 2 H I J r r r r r r r r K L ",
"M l N K O { P Q / / / y R S r T U V r r r W X r u ",
"Y Z `  .O { 1 / / G ../ +.S @.#.u V r $.B O %.&.*.",
"=.=.=.-.;.{ >.e y _ < / +.S ,.'.N N m B r q &.).!.",
"~.{.{.~.].{ ^./._ / / / (._.:.<.[.}.u |.u |.1.2.3.",
"4.4.4.5.6.u 7.8.8.8.8.8.8.8.9.[.K K K K K K 0.a.& ",
"b.b.b.c.X r d.e.f.g.h.i.i.i.i.j.g k.l.}.g m.a.& & ",
"n.n.n.o.p.u o.q.r.k.s.& & & & ) u p.t.u.u v.& & & "};
