/* XPM */
static char * nyan_frame_6_xpm[] = {
"25 15 159 2",
"  	c None",
". 	c #522244",
"+ 	c #3F1E31",
"@ 	c #403326",
"# 	c #2C2F32",
"$ 	c #002D5B",
"% 	c #003366",
"& 	c #BF1119",
"* 	c #7C0B10",
"= 	c #947256",
"- 	c #FFCC99",
"; 	c #FFBBBB",
"> 	c #FFB3CC",
", 	c #FFC7A2",
"' 	c #D8AD82",
") 	c #3A3C3E",
"! 	c #F52A02",
"~ 	c #490C00",
"{ 	c #F0C090",
"] 	c #FFBCB9",
"^ 	c #FF9DF7",
"/ 	c #FF99FF",
"( 	c #FF5FC5",
"_ 	c #FF6BD1",
": 	c #FF8DF3",
"< 	c #FFA6E6",
"[ 	c #745D46",
"} 	c #03284C",
"| 	c #FC7800",
"1 	c #4C2400",
"2 	c #F0B6A2",
"3 	c #FF66CC",
"4 	c #FF92F8",
"5 	c #E88BE8",
"6 	c #634463",
"7 	c #342D34",
"8 	c #D580D5",
"9 	c #FF94FA",
"0 	c #FFA8E2",
"a 	c #011E3B",
"b 	c #252525",
"c 	c #122639",
"d 	c #003060",
"e 	c #FBA500",
"f 	c #4C3100",
"g 	c #A261A2",
"h 	c #5D5D5D",
"i 	c #929292",
"j 	c #5E4D5E",
"k 	c #C95BAC",
"l 	c #FF90F6",
"m 	c #402A38",
"n 	c #999999",
"o 	c #4A4A4A",
"p 	c #00264D",
"q 	c #F0D300",
"r 	c #988600",
"s 	c #3C3400",
"t 	c #EACE00",
"u 	c #483F00",
"v 	c #FF68CE",
"w 	c #888888",
"x 	c #554755",
"y 	c #5C5650",
"z 	c #889000",
"A 	c #212305",
"B 	c #868F00",
"C 	c #292B00",
"D 	c #FF86EC",
"E 	c #F794F7",
"F 	c #885788",
"G 	c #6C6C6C",
"H 	c #9E9E9E",
"I 	c #979797",
"J 	c #092643",
"K 	c #438500",
"L 	c #394C25",
"M 	c #848484",
"N 	c #4F4F4F",
"O 	c #151515",
"P 	c #FF72D8",
"Q 	c #E060B9",
"R 	c #383838",
"S 	c #A1A1A1",
"T 	c #797979",
"U 	c #BDBDBD",
"V 	c #656565",
"W 	c #2CCB13",
"X 	c #26B210",
"Y 	c #24451F",
"Z 	c #3F3F3F",
"` 	c #2E2E2E",
" .	c #FF79DF",
"..	c #FF80E6",
"+.	c #E073CD",
"@.	c #2A2A2A",
"#.	c #5A5A5A",
"$.	c #767676",
"%.	c #515151",
"&.	c #20D15C",
"*.	c #1AAF4D",
"=.	c #083417",
"-.	c #020F06",
";.	c #FF8FF5",
">.	c #E086E0",
",.	c #D79999",
"'.	c #F69999",
").	c #8C8C8C",
"!.	c #7C7C7C",
"~.	c #B59999",
"{.	c #FF9999",
"].	c #3E2525",
"^.	c #0EA7CB",
"/.	c #04323D",
"(.	c #F0BB99",
"_.	c #FF77DD",
":.	c #FF85EB",
"<.	c #F090F0",
"[.	c #6D4C6D",
"}.	c #9A7B7B",
"|.	c #C79999",
"1.	c #A79999",
"2.	c #A57272",
"3.	c #1E2539",
"4.	c #1E7FF7",
"5.	c #1E80F7",
"6.	c #1354A2",
"7.	c #020912",
"8.	c #FFC7A4",
"9.	c #FF95D5",
"0.	c #FF97FD",
"a.	c #737373",
"b.	c #5247F7",
"c.	c #39329C",
"d.	c #251E17",
"e.	c #BF9973",
"f.	c #1D1711",
"g.	c #000000",
"h.	c #0C0C0C",
"i.	c #111111",
"j.	c #000A14",
"k.	c #00172E",
"l.	c #5536D9",
"m.	c #222126",
"n.	c #241856",
"o.	c #202020",
"p.	c #070B0F",
"q.	c #001932",
"r.	c #414141",
"s.	c #333333",
"t.	c #000E1D",
"u.	c #464646",
"v.	c #002850",
"w.	c #263498",
"x.	c #08090C",
"y.	c #1F265A",
"z.	c #1E297A",
"A.	c #001428",
"B.	c #192633",
". . . . . . + @ @ @ @ @ @ @ @ @ @ @ @ # $ % % % % ",
"& & & & & * = - ; > > > > > > > > > , ' ) $ % % % ",
"! ! ! ! ! ~ { ] ^ / / / ( / _ : / / < - [ } % % % ",
"| | | | | 1 2 / 3 4 / / / 5 6 7 8 : 9 0 [ a b c d ",
"e e e e e f 2 / / / / / / g h i j k l < [ m n o p ",
"q r s t q u 2 / / / / v l g h n w x 7 m y i n o p ",
"z o n A B C 2 / / D / / E F G n n n n n H H I h J ",
"K L M N N O 2 / / P / / Q R n H S T n n n U V n b ",
"W X Y Z n ` 2  .../ / / +.R n i @.#.n $.V %.@.n b ",
"&.&.&.*.=.-.2 / / / ;.l >.R ,.'.).w I !.n !.~.{.].",
"^.^.^.^.^./.(.0 _.9 :.D <.[.}.|.V ` o O N O 1.2.3.",
"4.5.5.4.6.7.{ 8.9.0./ / / 5 6 w w a.a.a.a.a.T c d ",
"b.b.b.c.#.o d.e.e.e.e.e.e.e.e.f.g.g.g.h.i.j.k.% % ",
"l.l.l.m.n V n.o.N p.q.q.q.q.j.r.s.t.7.V u.v.% % % ",
"w.w.w.x.b y.z.h.b } % % % % A.o.B.$ } b i.v.% % % "};
