/* XPM */
static char * rainbow_xpm[] = {
"8 15 22 1",
" 	c None",
".	c #522244",
"+	c #BF1119",
"@	c #F52A02",
"#	c #FC7800",
"$	c #FBA500",
"%	c #FCA500",
"&	c #F0D300",
"*	c #B4BF00",
"=	c #B5BF00",
"-	c #4D9801",
";	c #4E9802",
">	c #4E9801",
",	c #2CCB13",
"'	c #20D15C",
")	c #0EA7CB",
"!	c #0EA6CB",
"~	c #1E7FF7",
"{	c #1E80F7",
"]	c #5247F7",
"^	c #5536D9",
"/	c #263498",
"........",
"++++++++",
"@@@@@@@@",
"########",
"$$$$$%$%",
"&&&&&&&&",
"*****=**",
"-;;>;;;;",
",,,,,,,,",
"''''''''",
")))!))!)",
"~{{~{{{{",
"]]]]]]]]",
"^^^^^^^^",
"////////"};
