/* XPM */
static char *rainbow[] = {
/* columns rows colors chars-per-pixel */
  "8 15 7 1",
  "1 c #584343",
  "2 c #a4896c",
  "3 c #e6d295",
  "4 c #8c9c84",
  "5 c #47597b",
  "6 c #597184",
  "7 c #6a6280",
  /* pixels */
  "11111111",
  "11111111",
  "22222222",
  "22222222",
  "33333333",
  "33333333",
  "33333333",
  "44444444",
  "44444444",
  "55555555",
  "55555555",
  "66666666",
  "66666666",
  "77777777",
  "77777777"
};
